<svg width="134" height="74" fill="none" xmlns="http://www.w3.org/2000/svg"><path d="M5.36 63.482H0v-3.298h14.623v3.304h-5.36v9.107H5.36v-9.113zM29.61 60.184v12.359h-3.773v-7.188l-6.505 7.207h-3.33V60.203h3.773v7.207l6.505-7.207 3.33-.02zM36.109 72.561h-3.773V60.202h3.773v4.554h6.062v-4.554h3.773v12.36h-3.773v-4.606H36.11v4.605zM48.663 72.561V60.202h3.773v3.33h3.903a8.049 8.049 0 012.758.339 4.17 4.17 0 012.836 4.137 4.273 4.273 0 01-3.252 4.293 8.579 8.579 0 01-2.368.286l-7.65-.026zm3.773-2.992h3.252a3.552 3.552 0 001.483-.182 1.554 1.554 0 00.963-1.457 1.393 1.393 0 00-1.015-1.366 4.397 4.397 0 00-1.457-.156H52.41l.026 3.161zM67.416 72.561h-3.772V60.202h3.772v4.658h1.041l4.554-4.658h4.735l-6.036 5.933 6.27 6.452h-5.022l-4.5-4.683h-1.042v4.657z" fill="#656565"/><path d="M93.924 66.395c0 3.695-3.044 6.557-8.092 6.557s-8.118-2.862-8.118-6.557c0-3.695 3.044-6.55 8.15-6.55 5.107 0 8.06 2.855 8.06 6.55zm-3.955 0c0-2.03-1.64-3.512-4.137-3.512-2.498 0-4.137 1.483-4.137 3.512 0 2.03 1.613 3.539 4.137 3.539 2.524 0 4.137-1.51 4.137-3.539zM113.959 66.37c0 3.538-2.836 5.385-7.598 5.49v1.248h-3.773V71.86c-4.735-.104-7.571-1.951-7.571-5.49 0-3.538 2.836-5.542 7.571-5.646V59.48h3.773v1.229c4.762.117 7.598 2.12 7.598 5.66zm-11.371-2.967c-2.602.104-3.746 1.3-3.746 2.966 0 1.665 1.144 2.732 3.746 2.836v-5.802zm7.52 2.966c0-1.665-1.119-2.862-3.747-2.966v5.802c2.628-.104 3.747-1.17 3.747-2.836zM134 66.37c0 3.538-2.836 5.385-7.598 5.49v1.248h-3.773V71.86c-4.735-.104-7.571-1.951-7.571-5.49 0-3.538 2.836-5.542 7.571-5.646V59.48h3.773v1.229c4.755.117 7.598 2.12 7.598 5.66zm-11.371-2.967c-2.602.104-3.747 1.3-3.747 2.966 0 1.665 1.145 2.732 3.747 2.836v-5.802zm7.52 2.966c0-1.665-1.119-2.862-3.747-2.966v5.802c2.622-.104 3.74-1.17 3.74-2.836h.007z" fill="#656565"/><path fill-rule="evenodd" clip-rule="evenodd" d="M55.799 33.357c.65-.54 1.242-.806 1.216-2.107-1.021.52-3.903.494-5.12-1.171-.344-.475 0-.71.352-.338.826.936 2.355.514 2.914.24a2.205 2.205 0 00-.52-.923c.208-.209.8-.514.924-1.041a7.38 7.38 0 00-1.575-.293 1.06 1.06 0 00.3-1.158c-1.256.384-2.804-.136-3.155-.598-.352-.462 0-.885.299-.586.65.65 3.701 1.412 4.846.267a1.704 1.704 0 01-.989-.715c1.06-.105 1.906-.729 1.952-1.51a4.716 4.716 0 01-2.069-.325 1.3 1.3 0 00.989-.943c-1.951-.117-2.094-1.555-2.101-1.795 1.262.728 3.487.403 2.908-1.386-1.048-.058-2.108-1.756.78-3.317 2.602-1.418 5.607-2.954 5.347-5.47-.175-1.614-2.83-2.713-3.168-3.533-1.105.527-1.3 1.138-.832 2.166 0 0-2.472.247-2.667-1.3a2.33 2.33 0 01.858-1.81c-.28 0-2.14-.5-2.7 1.022-1.046-.709-1.95-.69-2.64.065 1.119.65 1.815 2.947 3.669 3.623-1.301.716-3.454.417-4.697-1.782-1.177 1.776-1.854 3.532.65 5.405-4.598 2.095-4.553 6.089-8.56 7.995.41 1.086 1.262 1.086 2.349.917-1.73 2.244-.254 4.6-2.993 5.555.254.918.768 1.646 1.782 1.38-.286.448-.474.435-.923.93 1.496.943 3.252.26 3.675-2.765.072-.54.813-.202.56.325-1.705 3.526 2.602 6.18 1.08 8.769 1.346-.059 2.367-.163 2.933-.618.28.49.41 1.05.377 1.613a1.178 1.178 0 001.067-1.093c.488 1.418 2.225 2.934 5.015 2.934-1.476-2.101-.104-4.241-2.192-6.648l.059.02zm-2.81 2.583l-.599 1.015a13.01 13.01 0 00-.845-1.848c-.475.989-1.236 1.008-1.952 1.008.208-2.348-2.758-4.722-1.457-7.415a1.092 1.092 0 00-.468-1.483c-1.99-1.008-1.067 3.18-3.058 3.304.274-.484.47-1.009.58-1.554-.423.11-1.438.754-1.894-.072a3.254 3.254 0 001.679-2.537 9.755 9.755 0 01.56-2.264c.42-.741.915-1.439 1.476-2.081-.202 0-2.44.5-2.94.267 3.87-2.375 2.998-5.4 8.892-8.086-1.549-1.151-3.13-2.062-1.997-4.26 1.613 1.95 4.69 1.3 6.342.364-1.64-.326-3.753-1.77-4.254-3.376.65-.098 1.418.572 1.88.884.22-.592.312-1.3 1.027-1.43-.956 2.055.937 3.122 2.745 3.128.28 0 1.451-.117 1.451-.117-.189-.384-.943-1.431-.39-1.86.442.416.969.748 1.45 1.112 3.513 2.719-1.671 5.236-3.792 6.381-3.33 1.796-2.44 3.936-1.047 4.482 0 .24-.156.351-.384.423-.97.325-1.886-.37-2.66-.813.045 1.34-.046 2.602 1.437 3.37l-1.021.377c.878.65 1.145 1.02 2.205 1.157a4.794 4.794 0 01-1.633.287c.104.43.28.839.52 1.21-2.166.26-3.03-.983-3.7-.93-1.432.103-1.34 2.796 2.178 2.796l-.364.605c.404.228.844.385 1.301.462-.234.189-.462.442-.65.65l.559.482c-1.438.26-1.84-1.3-2.771-.533-1.418 1.125 1.71 3.5 4.716 3.148-.39.384-.813.734-1.262 1.047 2.446 2.31 1.243 4.489 2.244 6.082a4.43 4.43 0 01-4.04-3.363" fill="#656565"/><path fill-rule="evenodd" clip-rule="evenodd" d="M49.19 27.535c.508.527 1.126.586 2.29.508-1.301-.156-2.004-.469-2.452-1.301-.07-.468-.114-.94-.13-1.412a9.79 9.79 0 011.34-4.716 3.297 3.297 0 002.823 3.129c-1.757-.767-2.791-2.498-2.225-4.17.364-.585.78-1.19 1.242-1.801.234-.3.456-.58.65-.846-.233.852.794 1.737 1.49 1.88-.377-.364-1.177-1.555.651-3.539a8.453 8.453 0 00-1.522.93c3.37-3.642 6.14-3.746 7.415-5.58-1.847 1.261-6.726 1.95-8.918 1.346 1.21.806 4.13.735 4.84.585-2.381 2.316-7.572 4.703-8.456 6.83a6.062 6.062 0 013.18-2.003 21.12 21.12 0 00-2.172 3.734c-1.38 2.998-3.253 3.037-3.35 5.516.65-1.952 1.912-2.407 2.797-3.663a12.36 12.36 0 00-.202 2.726 8.497 8.497 0 00.612 2.986c-.091 1.223 0 3.31 1.424 4.696a6.33 6.33 0 01-1.073-3.903c1.1 2.12 4.228 5.048 5.744 7.013-1.516-2.53-5.204-5.484-6.024-8.9M83.854 17.348a6.076 6.076 0 013.181 2.004c-.897-2.127-6.095-4.514-8.456-6.83.715.15 3.636.227 4.846-.586-2.192.599-7.077-.084-8.918-1.346 1.3 1.834 4.046 1.951 7.415 5.581a8.42 8.42 0 00-1.522-.93c1.854 1.984 1.054 3.168.65 3.538.69-.15 1.725-1.027 1.49-1.88.221.267.45.553.65.846.463.612.873 1.217 1.237 1.802.56 1.672-.475 3.402-2.225 4.17a3.291 3.291 0 002.817-3.13 9.757 9.757 0 011.34 4.717c-.017.473-.06.944-.13 1.411-.45.852-1.171 1.165-2.446 1.301 1.164.072 1.776 0 2.29-.507-.8 3.409-4.508 6.368-6.024 8.899 1.516-1.952 4.644-4.892 5.744-7.013a6.336 6.336 0 01-1.074 3.903c1.399-1.379 1.51-3.467 1.419-4.696a8.58 8.58 0 00.611-2.986 12.087 12.087 0 00-.202-2.726c.885 1.262 2.166 1.744 2.797 3.663-.117-2.479-1.951-2.518-3.35-5.516a20.918 20.918 0 00-2.172-3.734" fill="#656565"/><path fill-rule="evenodd" clip-rule="evenodd" d="M89.865 22.982c1.086.169 1.951.169 2.348-.918-4-1.905-3.968-5.9-8.56-7.994 2.524-1.873 1.847-3.636.65-5.406-1.242 2.199-3.382 2.498-4.696 1.783 1.853-.65 2.55-2.96 3.668-3.624-.663-.754-1.574-.8-2.615-.104-.566-1.515-2.42-1.02-2.7-1.02a2.33 2.33 0 01.86 1.808c-.196 1.522-2.66 1.3-2.66 1.3.493-1.027.279-1.639-.834-2.166-.338.82-2.992 1.92-3.16 3.533-.268 2.523 2.718 4.052 5.34 5.47 2.888 1.561 1.828 3.252.78 3.318-.579 1.795 1.646 2.114 2.908 1.385 0 .24-.163 1.678-2.101 1.795a1.3 1.3 0 00.989.944 4.749 4.749 0 01-2.069.325c.072.78.917 1.405 1.951 1.509a1.697 1.697 0 01-.982.735c1.145 1.138 4.222.39 4.846-.267.287-.299.65.13.3.58-.352.448-1.9.988-3.155.604a1.067 1.067 0 00.292 1.158 7.38 7.38 0 00-1.541.293c.117.527.715.832.923 1.04a2.213 2.213 0 00-.546.924c.56.274 2.095.696 2.914-.24.332-.371.696-.137.358.338-1.21 1.665-4.098 1.691-5.12 1.17 0 1.302.534 1.568 1.217 2.115-2.088 2.407-.709 4.553-2.186 6.648 2.784 0 4.554-1.516 5.016-2.934a1.178 1.178 0 001.067 1.093c-.031-.563.1-1.123.377-1.613.566.455 1.593.56 2.933.618-1.522-2.602 2.791-5.237 1.08-8.769-.253-.527.488-.865.56-.325.397 3.018 2.179 3.708 3.675 2.764-.449-.494-.65-.48-.924-.93 1.008.267 1.522-.462 1.783-1.379-2.739-.962-1.262-3.31-2.993-5.555l.007-.006zm.221 6.01c.104.548.298 1.076.572 1.561-1.99-.13-1.066-4.319-3.057-3.31a1.092 1.092 0 00-.468 1.482c1.3 2.693-1.665 5.068-1.496 7.429-.735 0-1.496 0-1.952-1.008-.33.593-.612 1.21-.845 1.847l-.599-1.015a4.436 4.436 0 01-4.04 3.363c1.002-1.593-.201-3.766 2.245-6.082a9.625 9.625 0 01-1.262-1.047c3.005.358 6.134-2.023 4.71-3.148-.93-.735-1.34.793-2.772.533l.56-.481c-.195-.195-.423-.45-.65-.65a3.98 3.98 0 001.3-.463l-.364-.605c3.52 0 3.604-2.693 2.18-2.797-.651-.052-1.543 1.184-3.702.93.238-.372.414-.78.52-1.21-.556 0-1.109-.096-1.632-.286 1.06-.136 1.3-.494 2.205-1.157l-1.022-.378c1.484-.741 1.392-2.03 1.431-3.37-.774.45-1.69 1.139-2.654.814-.227-.078-.383-.182-.383-.423 1.392-.546 2.276-2.687-1.048-4.482-2.146-1.164-7.337-3.675-3.818-6.368.481-.364 1.002-.696 1.444-1.112.553.422-.202 1.47-.39 1.86 0 0 1.17.117 1.444.117 1.808 0 3.708-1.08 2.751-3.129.722.15.807.84 1.022 1.431.462-.312 1.262-.982 1.88-.884-.501 1.606-2.602 3.05-4.255 3.376 1.66.904 4.73 1.574 6.343-.365 1.131 2.193-.443 3.11-1.997 4.261 5.9 2.693 5.028 5.711 8.898 8.086-.5.234-2.745-.235-2.94-.267a12.508 12.508 0 011.483 2.081c.28.73.473 1.49.573 2.264a3.284 3.284 0 001.678 2.537c-.455.826-1.464.182-1.886.072M62.004 35.582l.84-.716-.13-.26c-.092-.182-.046-.195.051-.267l.443-.331a.35.35 0 01.338-.046l1.3.312h-1.372a.54.54 0 00-.54.384l-.097.202-.365.741a.84.84 0 00.137.983l.254.299-.508 1.06h.436l.358-.728c.3-.275.524-.622.65-1.009-.15-.123-.26-.208-.175-.384l.162-.344c.053-.117.072-.163.228-.13l1.399.305a.488.488 0 00.618-.156c.195-.292.22-.26.65-.215l.716.079a3.76 3.76 0 002.328-.456c.16.267.334.525.52.774.046.085 0 .209-.09.365l-.774 1.899h1.236l.702-1.75c.05-.137.13-.261.234-.364l-.403 2.114h1.197l.319-2.095c.071-.461 0-.611-.196-.806-.5-.423-.487-1.301-.65-1.848a.482.482 0 01.3-.058c.26 0 .454.696.767 1.119.611.865 1.45 1.815 2.413.475a3.108 3.108 0 00-.312-.423l-.267-.313c-.156-.175-.898-1.02-1.21-1.3a1.808 1.808 0 00-2.218-.26c-.976-.508-2.004 0-2.25 0l-1.679-.105a.331.331 0 01-.273-.162l.312-.104c-.293-1.217-1.028-2.238-2.31-2.407 0 0-.077-.384-.266-.462l-.384.455a1.3 1.3 0 00-.325.091l-1.639-.611 1.23 1.242s-.612.885-.814 1.067a.332.332 0 000 .462l.24.312c.125.163.261.156.456.052l.267-.136c.117-.098.514.097.65-.059a4.968 4.968 0 00-.11.97l-1.106-.13a.56.56 0 00-.5.116l-.944.722a.82.82 0 00-.215 1.041l.371.794zm9.107.208l-.748 1.84H69.9l.748-1.782c.078-.227-.072-.338-.254-.591.26.152.532.282.814.39a.91.91 0 00-.092.143h-.006zm-7.201-3.994l-.215.11c-.15.085-.22.124-.35-.038l-.092-.118a.241.241 0 01.033-.299l.917-1.073-.846-.696 1.08.397.397-.495c.117.098.078.384.078.384a2.186 2.186 0 011.75 2.205c.15.229.383.39.65.449l1.867.11c.306 0 1.08-.591 2.075 0 .24-.157.51-.262.794-.305a2.419 2.419 0 012.003 1.158c.351.442.833 1.125.833 1.125-.208.247-.41.325-.58.267a.86.86 0 01-.422-.65 2.035 2.035 0 00-.65-.853c.137.312.233.64.286.976-.729-.722-.865-1.607-1.38-1.724a.748.748 0 00-.734.325c.26.599.247 1.301.507 1.75.202.345.24.377.332.456.214.156.09.429.058.65l-.28 1.73h-.468l.306-1.697c.091-.514-1.36-.514-2.101-1.503-.65.741-2.407.553-3.174.436a.65.65 0 00-.781.28c-.098.175-.267.123-.37.097l-1.4-.3a.336.336 0 00-.393.09.339.339 0 00-.068.125l-.28.58a.26.26 0 00.052.344l.137.143c-.067.189-.181.357-.332.488l-.306-.345a.612.612 0 01-.039-.65l.456-.943a.365.365 0 01.338-.215h1.73l-.533-.865c-.397-.65.26-1.802.162-2.348-.052.728-.93.396-1.073.494l.026-.052zm-1.886 2.179l.82-.65a.51.51 0 01.409-.163l1.158.15c.052.196.135.383.247.552l-1.23-.26a.423.423 0 00-.39.104l-.585.443a.293.293 0 00-.052.377l.097.202-.41.305-.156-.292c-.156-.313-.169-.599.092-.8M65.594 11.742c.396.25.812.468 1.243.65v-.527l-1.75-.65s0 .215.507.56M66.838 11.104v-.527l-1.984-.709c.227.223.475.424.741.599.395.25.811.468 1.243.65M66.838 9.907v-.534l-2.173-.8s.423.345.93.69c.396.25.811.468 1.243.65" fill="#656565"/><path fill-rule="evenodd" clip-rule="evenodd" d="M72.945 17.128h2.225a1.034 1.034 0 00-1.086-.65 1.249 1.249 0 00-1.139.65zM70.617 8.58l-2.173.8v.533c.432-.181.848-.399 1.243-.65.507-.345.93-.69.93-.69M70.194 11.189l-1.75.65v.527c.431-.182.847-.4 1.243-.65.507-.345.507-.56.507-.56M70.435 9.868l-1.952.71v.526c.432-.181.848-.399 1.243-.65.266-.175.515-.375.741-.599M61.198 16.478a1.028 1.028 0 00-1.087.65h2.225a1.255 1.255 0 00-1.138-.65z" fill="#656565"/><path fill-rule="evenodd" clip-rule="evenodd" d="M72.054 7.156c0-1.25-2.1-2.368-4.416-2.368-2.316 0-4.417 1.119-4.417 2.368l.052.306.923 5.308-4.351 2.556a2.601 2.601 0 00-1.152 1.802h.8a1.776 1.776 0 011.848-1.548c1.008.052 1.606.65 2.205 1.548l.156.234.221.345h-6.44c.54.931.857 1.976.924 3.05v13.375c0 3.447 2.648 5.086 5.516 5.086 2.212 0 2.511-.097 3.734 1.12 1.216-1.224 1.516-1.12 3.734-1.12 2.862 0 5.51-1.639 5.51-5.087V20.739a6.942 6.942 0 01.917-3.05H71.37l.221-.345.157-.235c.592-.878 1.19-1.49 2.205-1.548a1.776 1.776 0 011.834 1.568h.8a2.604 2.604 0 00-1.132-1.802l-4.377-2.55.923-5.308.052-.312zm-7.936.611l3.253 1.113v5.112l-2.407-1.268-.846-4.957zm.8 10.85a3.206 3.206 0 001.952 1.197c.081.362.28.687.566.924a1.646 1.646 0 001.236 1.99 1.3 1.3 0 00.878.983l-.683.787a.994.994 0 01-.885.364l-3.05-.345c.13-.338-.222-.735-1.184-.566l1.197-3.35-.736-1.56-1.385 1.183-.104 3.52-.586-.293c-.774-.332-1.001 1.066-.266 1.073h.292a.332.332 0 00.137.351.24.24 0 000 .41.286.286 0 00-.058.462.65.65 0 00.357.962c.436.118.71-.357.8-.65l4.749 1.47a1.62 1.62 0 001.71-.403l1.237-1.087a1.301 1.301 0 00.65 1.562 6.44 6.44 0 00-.052.923H59.33v-7.806a6.173 6.173 0 00-.461-2.127l6.05.026zm5.107 2.967a1.606 1.606 0 00.071 1.593l-.201.202c-.891-.11-1.243-1.438-1.243-1.438-.009.117-.009.235 0 .352a1.243 1.243 0 01-.82-1.301c.204.11.423.188.651.227l.059-.39a1.36 1.36 0 01-1.126-.956h-.084.332c.347 0 .693-.048 1.027-.143a1.718 1.718 0 001.178.683c-.072.392-.017.798.156 1.158v.013zm1.3 3.5a1.3 1.3 0 00-.207.41l-.495.454a2.393 2.393 0 00-.832-1.951l.526-.52.105.104a1.221 1.221 0 00.904 1.483v.02zm-2.374-.222l.41-.397a2.232 2.232 0 01.794 1.952l-.442.41a1.546 1.546 0 01-.28.214 2.432 2.432 0 00-.475-2.172l-.007-.007zm-.871.345a.853.853 0 00.449-.065 2.232 2.232 0 01.182 2.094 2.218 2.218 0 01-.612-.09l-.156-.046c.27-.595.314-1.268.124-1.893h.013zm-1.047-.13l.579.071c.104.606.008 1.23-.274 1.776l-.65-.195c.295-.5.425-1.08.37-1.659l-.026.007zm-1.197-.143l.696.084c.052.55-.061 1.103-.326 1.587l-.709-.208c.274-.436.393-.951.339-1.463zm-2.83-.189a.318.318 0 01-.455-.332 1.098 1.098 0 011.105.04c.17.11.313.416.547.604a5.207 5.207 0 01-.215.891.65.65 0 01-.442-1.092.435.435 0 00-.547-.118l.007.007zm-.462 1.294c.142.057.29.092.443.105a.253.253 0 01-.3.227.24.24 0 01-.143-.331zm-.65-1.866a.183.183 0 01.09-.345c.196 0 .456.227.716.338-.267.044-.54.044-.806 0v.007zm.65 1.353c.137.136.56.084.56.084v.085c-.182.247-.696.136-.58-.17h.02zm.547-.28c-.306.123-.612-.046-.514-.24.136.13.533.064.533.064l-.02.176zm.442-3.513l-.579 2.108.195-3.402.898-.768.455 1.002-1.151 3.304.306-2.224c0-.156-.098-.176-.124 0v-.02zm.091 2.55c.276-.018.553-.005.826.04.137.058.046.279-.13.26a3.67 3.67 0 01-.696-.3zm1.008.514l.703.085c.044.47-.056.941-.286 1.353l-.65-.195c.156-.418.248-.856.272-1.302l-.039.059zm11.364 9.296a3.857 3.857 0 01-2.003 3.551l.449-.91h-.436l-.573 1.17a5.673 5.673 0 01-2.023.352c-2.283 0-2.888.09-3.733.936-.853-.839-1.451-.936-3.734-.936a5.752 5.752 0 01-2.017-.345l.573-1.171h-.443l-.507 1.028c-.117-.059-.234-.117-.351-.182l.416-.84h-.43l-.312.651a3.903 3.903 0 01-1.554-3.252v-5.133h16.64l.038 5.08zm.462-15.515a6.042 6.042 0 00-.468 2.128v7.805h-.91a5.307 5.307 0 01-.762-1.73 2.164 2.164 0 00.273 1.73h-1.17a6.851 6.851 0 01-.54-1.776c-.352.397-.13 1.477.09 1.776h-.774c-.02-.389.016-.78.111-1.157-.403-.079-.84-.293-.84-.742a.605.605 0 00.573.189l.332-.26c-1.1.032-1.145-1.165-.28-1.73-.865 0-1.515-.489-1.197-1.413a1.301 1.301 0 01-.377-1.82 1.554 1.554 0 01-.175-1.543 1.718 1.718 0 01-1.204-.474h-.071a3.05 3.05 0 001.3-1.002l6.09.02zm-3.31-3.76c-.905.157-1.68 1.263-2.317 2.258l-.071.117h-.65v.117c-.072.768-.8 1.808-2.407 1.808a2.634 2.634 0 01-1.685-.54 1.951 1.951 0 01-.65-.923 1.611 1.611 0 01-.072-.345v-.117h-.65l-.163-.065c-.65-.995-1.412-2.095-2.31-2.257l2.453-1.425 3.024 1.626 3.012-1.639 2.485 1.386zm-2.817-2.133l-2.407 1.268V8.88l3.252-1.113-.846 4.918zm-2.68-4.371l-3.578-1.405c.299-.716 1.704-1.301 3.571-1.301 1.867 0 3.252.611 3.571 1.3L67.65 8.315z" fill="#656565"/><path fill-rule="evenodd" clip-rule="evenodd" d="M75.58 23.632v-.39c-1.197 0-1.477-1.444-1.477-1.444a1.445 1.445 0 001.477 1.834zM74.064 26.065l-.124-.37c-1.02.26-1.548-1.36-1.548-1.36a1.379 1.379 0 001.672 1.73zM74.806 24.557c-1.222.195-1.723-1.23-1.723-1.23a1.386 1.386 0 001.177 1.646 1.074 1.074 0 001.574 1.17l-.117-.35a.794.794 0 01-.904-1.236M74.045 20.49v-.39c-1.614-.332-1.477-1.445-1.477-1.445a1.444 1.444 0 001.47 1.835M63.806 36.773l-.578 1.17h.435l.58-1.17h-.436zM64.678 36.773l-.58 1.17h.443l.572-1.17h-.435zM68.178 36.773l-.58 1.17h.436l.58-1.17h-.436zM69.055 36.773l-.578 1.17h.435l.573-1.17h-.43zM67.305 36.773l-.578 1.17h.435l.58-1.17h-.437zM72.412 37.943h.436l.579-1.17h-.436l-.579 1.17zM65.555 36.773l-.578 1.17h.435l.58-1.17h-.437zM66.428 36.773l-.58 1.17h.443l.572-1.17h-.435zM64.45 30.462a.182.182 0 10.15.182.169.169 0 00-.15-.182zM67.65 3.993a6.576 6.576 0 014.02 1.236 8.027 8.027 0 011.041-2.673l-1.444.162-.755-1.606-1.45.754L67.65.468l-1.405 1.398-1.463-.754-.761 1.606-1.438-.162c.506.82.859 1.726 1.04 2.673a6.576 6.576 0 014.027-1.236zm-3.37-.65l.69-1.457 1.301.65 1.38-1.353 1.41 1.392 1.302-.65.65 1.457.846-.13c-.221.401-.4.824-.533 1.262a7.552 7.552 0 00-7.364 0 6.567 6.567 0 00-.533-1.262l.852.09z" fill="#656565"/><path fill-rule="evenodd" clip-rule="evenodd" d="M69.121 1.119a.384.384 0 00.416-.351c-.05-.27-.147-.53-.286-.768 0 0-.462.494-.475.703a.384.384 0 00.345.41M71.482 1.978a.384.384 0 00.514-.163c.058-.267.069-.542.032-.813 0 0-.611.273-.709.462a.39.39 0 00.163.514zM66.168 1.12a.384.384 0 00.35-.41c0-.215-.474-.703-.474-.703a2.41 2.41 0 00-.286.767.384.384 0 00.41.352M63.8 1.978a.383.383 0 00.156-.514c-.097-.189-.709-.462-.709-.462a2.35 2.35 0 00.04.813.378.378 0 00.513.163zM92.187 14.988c.493-.213.883-.61 1.086-1.106-1.301-.189-4.69-1.613-7.494-.449 1.048-.995 1.99-1.125 2.082-2.556a1.015 1.015 0 001.587-.26c-.286-.853-1.021-.163-1.119-.397-.097-.235.917.104 1.152-1.009-.826-.286-1.074.39-1.223.234-.15-.156.527-.435.039-1.3-.859.5-.41 1.073-.592 1.131-.182.059-.046-.605-1.002-.572-.091 1.021.898 1.054.728 1.216-.169.163-.448-.585-1.17-.188a1.06 1.06 0 001.372 1.086c-.11 1.568-1.548 1.301-2.602 3.044 2.27 1.165 3.292 3.194 4.69 4.593a8.029 8.029 0 001.25-1.783 1.836 1.836 0 002.601 0c-.52-.533-.54-.936-1.333-1.665l-.052-.02zm-2.147.305a2.557 2.557 0 01-.273 2.472 10.35 10.35 0 00-2.934-3.747c-.208-.13.11-.37.69-.442 1.75-.332 3.792.41 4.768.65a2.511 2.511 0 01-1.301.547 7.883 7.883 0 011.587 1.652c-.69.17-1.073-.26-2.55-1.151M75.418 41.423v-1.912a17.561 17.561 0 01-5.816 1.45l-.11.683c.208 0 .468.052.813.078a19.786 19.786 0 01-5.386 0c.345 0 .605-.045.813-.078l-.11-.683a17.508 17.508 0 01-5.777-1.45v1.912l-1.951.826a24.32 24.32 0 005.203 1.913l-.234.8a17.85 17.85 0 009.68 0l-.235-.8a24.327 24.327 0 005.204-1.913l-2.094-.826zm-16.484.872l1.353-.547v-1.56c1.187.436 2.407.773 3.65 1.008l-.768 2.504a22.401 22.401 0 01-4.235-1.418v.013zm8.717 2.881c-1.45-.009-2.893-.19-4.3-.54l.813-2.601c2.306.385 4.66.385 6.967 0l.813 2.602c-1.407.348-2.85.53-4.3.54h.007zm4.469-1.463l-.774-2.517a22.757 22.757 0 003.649-1.022v1.561l1.353.547a22.113 22.113 0 01-4.235 1.418M44.337 16.646a8.069 8.069 0 001.249 1.782c1.398-1.398 2.426-3.428 4.69-4.592-1.074-1.763-2.511-1.47-2.602-3.044a1.067 1.067 0 001.366-1.087c-.722-.396-.976.39-1.171.189-.195-.202.826-.195.728-1.216-.95 0-.774.65-1.001.572-.228-.078.266-.65-.592-1.132-.488.898.175 1.178.039 1.301-.137.124-.397-.52-1.223-.234.221 1.106 1.3.65 1.145 1.008-.157.358-.833-.455-1.12.397a1.008 1.008 0 001.581.26c.092 1.438 1.035 1.555 2.082 2.557-2.803-1.165-6.212.266-7.494.448.205.495.595.89 1.087 1.1-.794.735-.813 1.138-1.301 1.665 0 0 1.06 1.164 2.602 0l-.065.026zm-1.522-.247a7.702 7.702 0 011.593-1.652 2.537 2.537 0 01-1.3-.553c.975-.26 3.024-.996 4.767-.65.573.077.898.311.69.442a10.342 10.342 0 00-2.94 3.746 2.564 2.564 0 01-.273-2.471c-1.477.89-1.86 1.3-2.55 1.15M66.414 15.58v.845a1.059 1.059 0 01.852-.28v1.217c-.003.3-.082.596-.228.859h1.217a1.821 1.821 0 01-.234-.859V16.14a1.053 1.053 0 01.852.28v-.846h-2.459v.007z" fill="#656565"/><path fill-rule="evenodd" clip-rule="evenodd" d="M55.798 33.39c.65-.54 1.242-.807 1.216-2.108-1.02.52-3.902.494-5.119-1.17-.345-.476 0-.71.351-.339.827.937 2.362.514 2.915.24a2.192 2.192 0 00-.52-.95c.207-.207.8-.513.923-1.04a7.359 7.359 0 00-1.574-.293 1.06 1.06 0 00.292-1.157c-1.255.383-2.797-.137-3.154-.599-.358-.462 0-.884.299-.579.65.65 3.701 1.405 4.846.267a1.698 1.698 0 01-.982-.729c1.06-.104 1.906-.728 1.951-1.509a4.722 4.722 0 01-2.068-.325 1.301 1.301 0 00.988-.943c-1.951-.117-2.088-1.555-2.1-1.796 1.261.729 3.486.404 2.907-1.385-1.047-.059-2.108-1.756.78-3.311 2.602-1.418 5.608-2.953 5.341-5.47-.17-1.614-2.83-2.713-3.161-3.533-1.106.527-1.301 1.139-.833 2.166 0 0-2.472.248-2.667-1.3a2.327 2.327 0 01.859-1.809c-.28 0-2.14-.5-2.7 1.015-1.04-.71-1.951-.683-2.634.065 1.119.65 1.815 2.947 3.669 3.623-1.301.716-3.448.416-4.697-1.782-1.177 1.776-1.854 3.532.65 5.405-4.599 2.095-4.553 6.089-8.56 7.995.403 1.086 1.262 1.086 2.348.917-1.73 2.244-.253 4.599-2.992 5.555.26.917.774 1.646 1.782 1.38-.286.448-.475.435-.923.93 1.496.942 3.252.26 3.669-2.765.071-.54.813-.202.559.325-1.704 3.526 2.602 6.18 1.08 8.762 1.346-.059 2.367-.163 2.927-.611.28.487.41 1.045.377 1.606a1.177 1.177 0 001.067-1.093c.488 1.419 2.225 2.94 5.009 2.94-1.412-2.08-.026-4.221-2.12-6.595zm-2.751 2.602L52.455 37a13.308 13.308 0 00-.846-1.847c-.475.988-1.236 1.008-1.952 1.008.15-2.388-2.823-4.762-1.522-7.455a1.098 1.098 0 00-.468-1.483c-1.99-1.008-1.067 3.18-3.057 3.311a5.31 5.31 0 00.579-1.561c-.423.11-1.431.754-1.887-.072a3.252 3.252 0 001.678-2.537 9.81 9.81 0 01.553-2.263c.422-.742.917-1.439 1.477-2.082-.202 0-2.433.501-2.94.267 3.87-2.374 2.999-5.393 8.892-8.086-1.548-1.151-3.129-2.068-1.99-4.26 1.613 1.951 4.683 1.3 6.342.37-1.64-.325-3.747-1.775-4.248-3.376.618-.097 1.418.573 1.88.885.221-.592.312-1.3 1.028-1.431-.956 2.049.936 3.122 2.738 3.129.28 0 1.45-.117 1.45-.117-.188-.384-.942-1.431-.396-1.854.442.416.97.748 1.45 1.112 3.513 2.72-1.671 5.237-3.792 6.382-3.324 1.795-2.432 3.935-1.047 4.481 0 .241-.156.345-.384.423-.969.325-1.886-.37-2.66-.813.045 1.34-.046 2.602 1.437 3.37l-1.02.37c.877.65 1.144 1.022 2.204 1.158a4.762 4.762 0 01-1.633.286c.104.43.28.84.52 1.21-2.165.26-3.03-.975-3.7-.93-1.431.104-1.34 2.797 2.179 2.797l-.364.599c.403.228.843.385 1.3.462-.234.188-.455.442-.65.65l.56.481c-1.438.26-1.841-1.3-2.772-.533-1.418 1.125 1.711 3.5 4.71 3.148-.39.382-.813.73-1.262 1.041 2.446 2.31 1.236 4.488 2.244 6.082a4.43 4.43 0 01-4.033-3.363" fill="#656565"/><path fill-rule="evenodd" clip-rule="evenodd" d="M49.196 27.535c.508.533 1.125.585 2.29.514-1.301-.156-2.004-.468-2.453-1.301a12.76 12.76 0 01-.123-1.412 9.756 9.756 0 011.333-4.716 3.297 3.297 0 002.823 3.13c-1.756-.768-2.784-2.499-2.224-4.17.364-.586.78-1.184 1.236-1.802.234-.293.455-.58.65-.846-.234.852.794 1.73 1.483 1.88-.37-.364-1.177-1.555.65-3.539a8.686 8.686 0 00-1.521.93c3.37-3.642 6.14-3.74 7.415-5.574-1.789 1.236-6.667 1.945-8.866 1.294 1.21.807 4.13.735 4.84.586-2.381 2.309-7.572 4.703-8.457 6.823a6.05 6.05 0 013.181-1.997 21.127 21.127 0 00-2.172 3.734c-1.38 2.999-3.253 3.038-3.35 5.516.65-1.919 1.906-2.407 2.797-3.662a12.415 12.415 0 00-.202 2.726 8.513 8.513 0 00.612 2.985c-.091 1.223 0 3.311 1.418 4.69a6.323 6.323 0 01-1.074-3.902c1.1 2.12 4.229 5.047 5.744 7.012-1.515-2.53-5.204-5.484-6.017-8.899M83.848 17.361a6.062 6.062 0 013.174 1.997c-.898-2.127-6.095-4.514-8.456-6.824.715.15 3.63.228 4.84-.585-2.193.598-7.071-.085-8.919-1.347 1.301 1.835 4.046 1.952 7.416 5.575a8.56 8.56 0 00-1.529-.93c1.854 1.984 1.054 3.174.65 3.539.69-.15 1.725-1.028 1.49-1.88.222.267.45.546.65.845.463.612.872 1.217 1.237 1.802.56 1.672-.475 3.402-2.225 4.17a3.291 3.291 0 002.817-3.129 9.758 9.758 0 011.34 4.716c-.017.473-.06.944-.13 1.412-.45.852-1.171 1.164-2.453 1.3 1.171.072 1.783 0 2.29-.513-.794 3.408-4.508 6.368-6.017 8.898 1.516-1.951 4.644-4.891 5.744-7.012a6.335 6.335 0 01-1.074 3.903c1.406-1.379 1.51-3.467 1.419-4.697.38-.948.586-1.957.611-2.979a12.128 12.128 0 00-.202-2.725c.885 1.262 2.166 1.743 2.797 3.662-.123-2.472-1.951-2.51-3.356-5.516a20.973 20.973 0 00-2.173-3.734" fill="#656565"/><path fill-rule="evenodd" clip-rule="evenodd" d="M89.858 22.982c1.087.17 1.952.17 2.349-.917-4-1.906-3.962-5.9-8.56-7.995 2.523-1.873 1.847-3.63.65-5.405-1.243 2.199-3.383 2.498-4.697 1.782 1.848-.65 2.55-2.96 3.669-3.623-.657-.754-1.574-.754-2.609-.104-.566-1.516-2.42-1.015-2.7-1.015a2.322 2.322 0 01.86 1.809c-.196 1.522-2.66 1.3-2.66 1.3.5-1.027.279-1.639-.834-2.165-.338.82-2.992 1.918-3.16 3.532-.268 2.524 2.718 4.052 5.34 5.47 2.888 1.561 1.828 3.253.78 3.311-.579 1.796 1.64 2.114 2.908 1.386 0 .24-.17 1.678-2.101 1.795a1.3 1.3 0 00.989.937 4.73 4.73 0 01-2.069.325c.072.78.917 1.405 1.951 1.51a1.711 1.711 0 01-.975.734c1.145 1.139 4.221.39 4.846-.267.286-.299.65.124.293.58-.358.455-1.9.988-3.155.604a1.067 1.067 0 00.338 1.165c-.523.042-1.04.14-1.542.292.117.527.716.833.924 1.041a2.206 2.206 0 00-.546.924c.559.273 2.094.696 2.914-.24.331-.372.696-.137.357.337-1.21 1.666-4.098 1.692-5.119 1.171 0 1.301.534 1.568 1.217 2.108-2.089 2.407-.71 4.553-2.186 6.648 2.784 0 4.553-1.516 5.009-2.94a1.177 1.177 0 001.067 1.093c-.03-.561.1-1.119.377-1.607.566.455 1.593.56 2.933.611-1.522-2.602 2.791-5.236 1.08-8.762-.253-.527.488-.865.56-.325.403 3.025 2.172 3.708 3.675 2.765-.449-.495-.65-.482-.924-.93 1.008.266 1.522-.463 1.783-1.38-2.732-.962-1.262-3.31-2.993-5.555h-.039zm.267 6.004c.107.549.303 1.076.579 1.561-1.99-.13-1.067-4.319-3.057-3.31a1.099 1.099 0 00-.482 1.47c1.301 2.692-1.665 5.067-1.496 7.428-.735 0-1.496 0-1.951-1.008-.328.594-.61 1.211-.846 1.847l-.592-1.008a4.436 4.436 0 01-4.033 3.363c1.002-1.594-.201-3.766 2.244-6.082a9.58 9.58 0 01-1.262-1.04c3.006.35 6.135-2.024 4.71-3.15-.93-.734-1.34.794-2.771.534l.56-.481c-.196-.195-.424-.449-.651-.65a3.961 3.961 0 001.3-.463l-.364-.598c3.513 0 3.604-2.693 2.18-2.797-.65-.052-1.536 1.184-3.702.93.238-.372.414-.78.52-1.21-.556 0-1.109-.096-1.632-.286 1.06-.137 1.301-.488 2.205-1.158l-1.021-.377c1.483-.742 1.385-2.03 1.43-3.37-.773.45-1.69 1.139-2.653.813-.234-.078-.384-.182-.384-.422 1.392-.547 2.277-2.687-1.047-4.482-2.12-1.145-7.305-3.662-3.792-6.381.48-.371 1.001-.703 1.444-1.113.553.423-.202 1.47-.39 1.854 0 0 1.17.117 1.443.117 1.809 0 3.708-1.08 2.745-3.129.723.15.807.84 1.022 1.431.462-.312 1.262-.982 1.88-.884-.501 1.606-2.602 3.05-4.254 3.376 1.658.904 4.728 1.574 6.342-.371 1.132 2.192-.45 3.11-1.997 4.26 5.9 2.687 5.028 5.705 8.892 8.086-.501.234-2.739-.234-2.94-.267a12.423 12.423 0 011.483 2.082c.28.73.472 1.49.572 2.264a3.291 3.291 0 001.678 2.537c-.455.826-1.463.182-1.886.071M62.004 35.582l.84-.716-.13-.254c-.092-.182-.046-.195.052-.266l.442-.332a.351.351 0 01.338-.046l1.301.313h-1.372a.54.54 0 00-.54.39l-.098.195-.364.742a.838.838 0 00.136.982l.254.306-.507 1.047h.435l.358-.728a2.4 2.4 0 00.65-1.009c-.149-.123-.26-.215-.175-.384l.163-.344c.052-.117.071-.163.227-.13l1.399.299a.482.482 0 00.618-.156c.189-.293.215-.26.65-.215l.716.078a3.76 3.76 0 002.329-.455c.13.305.397.533.52.767.046.085 0 .209-.091.365l-.774 1.912h1.236l.696-1.75c.052-.136.132-.26.234-.364l-.397 2.114h1.197l.319-2.095c.072-.461 0-.617-.195-.806-.501-.423-.488-1.301-.65-1.848a.475.475 0 01.299-.058c.26 0 .455.69.767 1.119.612.865 1.45 1.815 2.413.475a3.01 3.01 0 00-.312-.423l-.267-.313c-.156-.175-.897-1.02-1.21-1.3a1.801 1.801 0 00-2.211-.26c-.976-.514-2.004 0-2.244 0l-1.679-.105a.331.331 0 01-.273-.162l.313-.104c-.293-1.217-1.028-2.232-2.31-2.407 0 0-.078-.384-.273-.455l-.384.448a1.261 1.261 0 00-.325.091l-1.64-.611 1.263 1.23s-.65.903-.852 1.08a.325.325 0 000 .461l.24.312c.124.163.26.156.456.052l.266-.143c.117-.097.514.098.65-.058a4.83 4.83 0 00-.11.975l-1.106-.13a.554.554 0 00-.494.117l-.943.722a.82.82 0 00-.215 1.041l.364.794zm9.107.208l-.748 1.84h-.462l.748-1.782c.079-.227-.071-.338-.253-.591.26.152.531.283.813.39a1.326 1.326 0 00-.091.143h-.007zm-7.2-3.994l-.215.11c-.15.085-.221.124-.352-.038l-.09-.118a.248.248 0 01.032-.299l.917-1.067-.846-.696 1.074.397.397-.494c.117.097.078.383.078.383a2.186 2.186 0 011.75 2.206c.151.226.384.384.65.442l1.867.11c.312 0 1.08-.591 2.075 0 .24-.156.51-.26.793-.305a2.413 2.413 0 011.997 1.158c.352.442.833 1.125.833 1.125-.208.247-.41.325-.579.267a.873.873 0 01-.423-.65 2.028 2.028 0 00-.65-.846c.14.31.238.639.293.975-.729-.722-.866-1.6-1.38-1.723a.748.748 0 00-.735.325c.26.598.241 1.3.508 1.75.201.344.24.377.332.455.214.156.09.43.058.65l-.28 1.73h-.461l.305-1.697c.091-.514-1.353-.514-2.1-1.503-.651.742-2.408.553-3.175.443a.65.65 0 00-.78.28c-.098.169-.267.117-.371.097l-1.4-.3a.336.336 0 00-.393.09.339.339 0 00-.068.125l-.28.58a.266.266 0 00.052.344l.13.143a1.164 1.164 0 01-.331.488l-.306-.345a.604.604 0 01-.039-.65l.455-.943a.364.364 0 01.339-.221h1.73l-.527-.866c-.397-.65.26-1.801.163-2.348-.052.729-.937.397-1.074.494l.026-.058zm-1.88 2.179l.82-.65a.515.515 0 01.409-.163l1.158.15c.052.194.136.378.247.546l-1.23-.26a.424.424 0 00-.39.104l-.585.442a.286.286 0 00-.052.377l.09.202-.409.306-.156-.293c-.156-.312-.17-.598.09-.8M65.594 11.754c.396.25.812.468 1.243.65v-.526l-1.75-.65s0 .214.507.559M66.837 11.117v-.527l-1.951-.71c.227.224.475.425.741.6.396.25.812.467 1.243.65M66.838 9.92v-.533l-2.173-.8s.423.345.93.69c.396.25.811.468 1.243.65" fill="#656565"/><path fill-rule="evenodd" clip-rule="evenodd" d="M72.94 17.128h2.224a1.027 1.027 0 00-1.086-.65 1.255 1.255 0 00-1.139.65zM70.617 8.586l-2.173.8v.527c.432-.182.847-.4 1.243-.65.507-.345.924-.69.924-.69M70.194 11.195l-1.75.65v.527c.431-.183.847-.4 1.243-.65.507-.345.507-.56.507-.56M70.435 9.881l-1.952.71v.526a8.53 8.53 0 001.243-.65c.266-.175.514-.376.741-.599M61.205 16.478a1.028 1.028 0 00-1.087.65h2.225a1.255 1.255 0 00-1.139-.65z" fill="#656565"/><path fill-rule="evenodd" clip-rule="evenodd" d="M72.055 7.169c0-1.25-2.101-2.368-4.417-2.368s-4.417 1.119-4.417 2.368l.046.305.924 5.308-4.346 2.55a2.603 2.603 0 00-1.151 1.796h.8a1.776 1.776 0 011.847-1.549c1.009.052 1.607.65 2.206 1.549l.15.234.22.344h-6.44c.54.932.857 1.977.924 3.051v13.374c0 3.441 2.648 5.087 5.51 5.087 2.212 0 2.51-.098 3.734 1.119 1.216-1.223 1.515-1.119 3.733-1.119 2.863 0 5.51-1.64 5.51-5.087V20.744a6.947 6.947 0 01.924-3.05h-6.44l.221-.345.156-.235c.592-.878 1.19-1.496 2.205-1.548a1.776 1.776 0 011.835 1.562h.793a2.6 2.6 0 00-1.125-1.796l-4.378-2.55.924-5.308.052-.305zm-7.936.611l3.252 1.112v5.113l-2.406-1.268-.846-4.957zm.807 10.844a3.2 3.2 0 001.951 1.19c.081.362.28.687.566.924a1.646 1.646 0 001.236 1.99 1.301 1.301 0 00.872.982l-.65.787a1.01 1.01 0 01-.886.365l-3.05-.345c.13-.338-.222-.729-1.184-.56l1.197-3.356-.755-1.522-1.386 1.184-.104 3.519-.591-.293c-.775-.332-1.002 1.067-.267 1.074h.292a.332.332 0 00.137.35.241.241 0 000 .41.287.287 0 00-.058.462.65.65 0 00.357.963c.436.117.71-.358.8-.65l4.749 1.47a1.613 1.613 0 001.71-.404l1.237-1.086a1.3 1.3 0 00.65 1.561 6.571 6.571 0 00-.052.924h-12.36v-7.806a6.18 6.18 0 00-.46-2.127l6.049-.006zm5.106 2.96a1.601 1.601 0 00.072 1.593l-.202.202c-.891-.11-1.243-1.438-1.243-1.438-.01.12-.01.239 0 .358a1.242 1.242 0 01-.82-1.301c.203.112.423.189.651.228l.059-.39a1.353 1.353 0 01-1.126-.957h-.084.332a3.7 3.7 0 001.02-.15 1.718 1.718 0 001.178.65 1.9 1.9 0 00.163 1.159v.045zm1.3 3.466a1.363 1.363 0 00-.207.41l-.495.456a2.4 2.4 0 00-.832-1.952l.527-.52.104.104a1.218 1.218 0 00.904 1.483v.02zm-2.38-.182l.41-.403a2.237 2.237 0 01.794 1.951l-.45.41a1.585 1.585 0 01-.285.215 2.427 2.427 0 00-.469-2.173zm-.878.338a.858.858 0 00.449-.064 2.225 2.225 0 01.182 2.088c-.207 0-.413-.031-.611-.091l-.157-.046a2.675 2.675 0 00.124-1.893l.013.006zm-1.047-.136l.579.072c.105.605.009 1.23-.274 1.775l-.65-.195c.291-.499.418-1.077.364-1.652h-.02zm-1.19-.137l.695.085c.053.55-.06 1.102-.325 1.587l-.709-.208a2.29 2.29 0 00.338-1.464zm-2.83-.188a.319.319 0 01-.456-.332 1.1 1.1 0 011.106.039c.17.11.312.416.547.605a4.96 4.96 0 01-.215.891.65.65 0 01-.442-1.093.436.436 0 00-.547-.117l.007.007zm-.462 1.294c.142.053.29.086.442.098a.256.256 0 01-.194.225.253.253 0 01-.105.002.234.234 0 01-.143-.325zm-.65-1.873a.182.182 0 01.09-.345c.196 0 .462.228.716.338-.267.045-.54.045-.807 0v.007zm.65 1.353c.143.136.566.084.566.084v.085c-.182.247-.696.137-.58-.17h.014zm.56-.28c-.3.117-.612-.046-.515-.24.143.13.534.064.534.064l-.02.176zm.442-3.513l-.58 2.108.196-3.402.898-.768.455 1.002-1.113 3.292.306-2.225c0-.156-.097-.17-.123 0l-.04-.007zm.078 2.557c.276-.018.553-.005.826.039.136.058.045.28-.13.254a3.66 3.66 0 01-.696-.293zm1.008.514l.702.084c.05.486-.054.976-.299 1.399l-.65-.195c.159-.417.253-.856.28-1.301l-.033.013zm11.357 9.34a3.857 3.857 0 01-2.003 3.552l.449-.91H74l-.573 1.17a5.666 5.666 0 01-2.023.352c-2.283 0-2.888.09-3.733.936-.846-.839-1.45-.936-3.734-.936a5.687 5.687 0 01-2.036-.358l.579-1.17h-.423L61.55 37.8a5.959 5.959 0 01-.352-.182l.417-.84h-.43l-.305.651a3.903 3.903 0 01-1.555-3.252v-5.165h16.633l.032 5.126zm.462-15.507a6.01 6.01 0 00-.462 2.127v7.806h-.91a5.297 5.297 0 01-.761-1.73 2.168 2.168 0 00.273 1.73H73.42a6.815 6.815 0 01-.54-1.776c-.351.397-.13 1.477.091 1.776h-.774c-.02-.39.017-.78.11-1.158-.41-.078-.839-.286-.839-.741a.61.61 0 00.573.182l.332-.26c-1.093.032-1.145-1.165-.28-1.73-.872 0-1.516-.489-1.203-1.412a1.3 1.3 0 01-.378-1.822 1.555 1.555 0 01-.175-1.541 1.717 1.717 0 01-1.204-.475h-.071a3.045 3.045 0 001.3-1.002l6.09.026zm-3.31-3.76c-.905.156-1.679 1.262-2.31 2.258l-.072.117h-.65v.117c-.072.767-.8 1.808-2.407 1.808a2.64 2.64 0 01-1.685-.54 1.984 1.984 0 01-.65-.924 1.591 1.591 0 01-.072-.344v-.117h-.65l-.163-.117c-.65-.996-1.411-2.095-2.309-2.258l2.452-1.424 3.025 1.633 3.012-1.64 2.478 1.431zm-2.81-2.133l-2.408 1.268v-5.12l3.253-1.111-.846 4.963zm-2.68-4.41l-3.579-1.412c.306-.716 1.705-1.301 3.572-1.301s3.252.611 3.564 1.3l-3.558 1.412z" fill="#656565"/><path fill-rule="evenodd" clip-rule="evenodd" d="M75.58 23.665v-.39c-1.203 0-1.477-1.444-1.477-1.444a1.438 1.438 0 001.47 1.834M74.064 26.065l-.117-.37c-1.021.26-1.555-1.36-1.555-1.36a1.386 1.386 0 001.672 1.73zM74.806 24.562c-1.222.196-1.723-1.229-1.723-1.229a1.386 1.386 0 001.177 1.646 1.074 1.074 0 001.568 1.17l-.117-.35a.794.794 0 01-.905-1.237zM74.045 20.497v-.39c-1.613-.332-1.483-1.444-1.483-1.444a1.444 1.444 0 001.47 1.834M63.806 36.773l-.578 1.177h.435l.58-1.178h-.436zM64.678 36.773l-.572 1.177h.435l.573-1.178h-.436zM68.178 36.773l-.58 1.177h.436l.58-1.178h-.436zM69.055 36.773l-.578 1.177h.435l.573-1.178h-.43zM67.305 36.773l-.578 1.177h.435l.58-1.178h-.437zM72.412 37.95h.436l.579-1.178h-.436l-.579 1.178zM65.555 36.773l-.578 1.177h.435l.58-1.178h-.437zM66.428 36.773l-.58 1.177h.443l.572-1.178h-.435zM64.45 30.469a.176.176 0 10.15.175.17.17 0 00-.15-.175zM67.65 4.007a6.576 6.576 0 014.02 1.23 8.015 8.015 0 011.041-2.674l-1.444.163-.755-1.607-1.45.754L67.65.481 66.245 1.88l-1.463-.761-.755 1.607-1.444-.163a7.95 7.95 0 011.04 2.674 6.583 6.583 0 014.027-1.23zm-3.37-.65l.677-1.451 1.301.65 1.392-1.359 1.412 1.392 1.3-.65.651 1.457.846-.13c-.222.4-.401.823-.533 1.261a7.552 7.552 0 00-7.364 0 6.553 6.553 0 00-.533-1.261l.852.09z" fill="#656565"/><path fill-rule="evenodd" clip-rule="evenodd" d="M69.121 1.132a.384.384 0 00.416-.345c-.05-.27-.147-.53-.286-.767 0 0-.462.494-.475.702a.384.384 0 00.345.41zM71.482 1.99a.377.377 0 00.514-.163c.059-.269.07-.546.032-.82 0 0-.611.274-.709.463a.384.384 0 00.163.514M66.168 1.132a.384.384 0 00.35-.41c0-.208-.474-.702-.474-.702a2.41 2.41 0 00-.286.767.384.384 0 00.41.345zM63.8 1.99a.384.384 0 00.156-.514c-.097-.188-.709-.461-.709-.461-.036.273-.022.55.04.82a.375.375 0 00.513.162M92.18 14.993a2.042 2.042 0 001.087-1.105c-1.301-.182-4.69-1.614-7.494-.45 1.047-.994 1.99-1.125 2.082-2.556a1.015 1.015 0 001.58-.26c-.286-.852-1.014-.162-1.118-.397-.105-.234.917.098 1.144-1.008-.826-.286-1.073.39-1.222.234-.15-.156.526-.435.038-1.3-.858.5-.41 1.073-.591 1.131-.183.059-.046-.605-.996-.572-.09 1.021.892 1.054.729 1.216-.163.163-.456-.585-1.171-.188a1.061 1.061 0 001.373 1.086c-.111 1.568-1.549 1.3-2.602 3.044 2.27 1.165 3.291 3.194 4.69 4.593a8.077 8.077 0 001.248-1.783 1.834 1.834 0 002.602 0c-.52-.533-.54-.936-1.333-1.665l-.046-.02zm-2.153.306a2.557 2.557 0 01-.273 2.472 10.33 10.33 0 00-2.934-3.747c-.201-.13.111-.364.69-.442 1.743-.332 3.786.41 4.761.65a2.516 2.516 0 01-1.3.547 7.805 7.805 0 011.587 1.652c-.683.17-1.074-.267-2.55-1.151M75.418 41.43v-1.92a17.484 17.484 0 01-5.816 1.451l-.11.683c.208 0 .468.052.813.078a19.98 19.98 0 01-5.386 0c.345 0 .605-.045.813-.078l-.11-.683a17.443 17.443 0 01-5.777-1.45v1.912l-1.951.826a24.285 24.285 0 005.203 1.913l-.234.8c3.165.896 6.515.896 9.68 0l-.235-.8a24.358 24.358 0 005.204-1.913l-2.094-.82zm-16.484.865l1.353-.547v-1.56c1.187.435 2.407.773 3.65 1.008l-.768 2.497a22.255 22.255 0 01-4.235-1.418v.02zm8.717 2.881a18.294 18.294 0 01-4.293-.54l.813-2.601c2.306.387 4.66.387 6.966 0l.814 2.602a18.38 18.38 0 01-4.3.54zm4.469-1.463l-.774-2.517c1.242-.24 2.463-.581 3.649-1.022v1.561l1.353.547a22.06 22.06 0 01-4.235 1.418M44.344 16.652a8.13 8.13 0 001.249 1.776c1.398-1.398 2.426-3.428 4.69-4.592-1.074-1.763-2.511-1.47-2.602-3.044a1.061 1.061 0 001.366-1.087c-.722-.396-.976.39-1.171.189-.195-.202.826-.195.729-1.216-.95 0-.775.65-1.002.572-.228-.078.267-.65-.592-1.132-.488.898.175 1.178.039 1.301-.137.124-.397-.52-1.223-.234.221 1.106 1.3.65 1.145 1.008-.156.358-.833-.455-1.119.397a1.006 1.006 0 001.58.26c.092 1.438 1.035 1.555 2.082 2.557-2.803-1.165-6.205.266-7.493.448.205.496.598.891 1.092 1.1-.832.767-.832 1.17-1.34 1.704 0 0 1.06 1.164 2.602 0l-.032-.006zm-1.555-.214a7.71 7.71 0 011.594-1.652 2.55 2.55 0 01-1.301-.553c.976-.26 3.025-.995 4.768-.65.572.077.898.312.69.442a10.348 10.348 0 00-2.96 3.753 2.601 2.601 0 01-.273-2.472c-1.47.891-1.86 1.301-2.55 1.151M66.414 15.586v.845a1.055 1.055 0 01.852-.28v1.217a1.808 1.808 0 01-.234.859h1.216a1.814 1.814 0 01-.234-.86v-1.222a1.048 1.048 0 01.852.28v-.846h-2.452v.007z" fill="#656565"/></svg>