<svg aria-hidden="true" style="position: absolute; width: 0; height: 0; overflow: hidden;" version="1.1" xmlns="http://www.w3.org/2000/svg" xmlns:xlink="http://www.w3.org/1999/xlink">
<defs>
<symbol id="icon-svg1" viewBox="0 0 16 16">
<path d="M8.098 1.705l6.117 4.059c0.053 0.035 0.088 0.094 0.089 0.161v4.12c0 0 0 0.001 0 0.001 0 0.040-0.012 0.077-0.034 0.107l-0 0c-0.015 0.021-0.033 0.039-0.054 0.053l-0.001 0-0.003 0.002-6.118 4.060c-0.028 0.020-0.064 0.032-0.102 0.032-0.001 0-0.002-0-0.003-0h0c-0 0-0.001 0-0.001 0-0.039 0-0.075-0.012-0.104-0.033l0.001 0-0.002-0.002-6.112-4.056c-0.064-0.042-0.095-0.094-0.095-0.171v-4.113c-0-0.001-0-0.002-0-0.003 0-0.038 0.012-0.073 0.032-0.102l-0 0.001c0.014-0.021 0.031-0.038 0.052-0.051l0.006-0.004 6.12-4.062c0.052-0.036 0.157-0.036 0.21 0l0.002 0.001zM11.033 7.744l2.744-1.82-5.599-3.714v3.614l2.856 1.92zM7.802 5.824v-3.614l-5.598 3.715 2.742 1.819 2.856-1.92zM4.61 7.972l-2.557-1.697v3.417l2.557-1.72zM2.202 10.045l5.6 3.715v-3.669l-2.854-1.894-2.746 1.848zM5.287 7.969l2.702 1.795 2.705-1.795-2.705-1.819-2.702 1.819zM8.178 10.091v3.67l5.599-3.716-2.744-1.848-2.855 1.894zM11.371 7.972l2.557 1.72v-3.416l-2.557 1.697z"></path>
</symbol>
<symbol id="icon-svg2" viewBox="0 0 16 16">
<path d="M12.118 5.467h-2.937v-0.594h2.937v0.594z"></path>
<path d="M4.094 12.995v-2.572h-1.321c-0.521 0-0.945-0.424-0.945-0.945v-5.124c0-0.888 0.723-1.611 1.611-1.611h9.333c0.888 0 1.611 0.723 1.611 1.611v5.124c0 0.521-0.424 0.945-0.945 0.945h-1.322v2.572c0 0.246-0.2 0.446-0.446 0.446h-7.132c-0.246 0-0.446-0.2-0.446-0.446zM12.118 7.532v2.335h1.71v-5.512c0-0.582-0.472-1.055-1.055-1.055h-9.333c-0.582 0-1.055 0.473-1.055 1.055v5.512h1.709v-2.335c0-0.246 0.2-0.446 0.446-0.446h7.132c0.246 0 0.446 0.2 0.446 0.446zM4.608 7.6v5.326h6.996l-0.001-5.326h-6.995z"></path>
<path d="M6.964 10.392l0.571 0.762 1.143-1.524 1.486 1.981h-4.114l0.914-1.219z"></path>
</symbol>
<symbol id="icon-svg3" viewBox="0 0 16 16">
<path d="M4.389 8.389h3.223v0.556h-3.223v-0.556zM4.389 11.055h3.223v0.556h-3.223v-0.556z"></path>
<path d="M13.333 10.278h-3.055v3.055c-0.001 0.522-0.423 0.944-0.945 0.945h-6.667c-0.522-0.001-0.944-0.423-0.945-0.945v-6.667c0.001-0.521 0.423-0.944 0.945-0.945h3.055v-3.055c0.001-0.521 0.423-0.944 0.945-0.945h6.667c0.521 0.001 0.944 0.423 0.945 0.945v6.667c-0.001 0.522-0.423 0.944-0.945 0.945h-0zM2.278 6.278v7.444h7.445l-0.001-7.444h-7.444zM10.278 9.722h3.444v-7.444h-7.444v3.444h3.055c0.521 0.001 0.944 0.423 0.945 0.945v3.055z"></path>
</symbol>
<symbol id="icon-svg4" viewBox="0 0 16 16">
<path d="M4.389 5.055h0.451v5.889h-0.451v-5.889zM8.483 5.055h0.462v5.889h-0.462v-5.889z"></path>
<path d="M11.611 2.667v1.722h1.722c0.522 0.001 0.944 0.423 0.945 0.945v5.333c-0.001 0.521-0.423 0.944-0.945 0.945h-1.722v1.055c0 0.888-0.723 1.611-1.611 1.611h-6.667c-0.888 0-1.611-0.723-1.611-1.611v-10c0-0.154 0.124-0.278 0.278-0.278h9.333c0.154 0 0.278 0.125 0.278 0.278zM11.055 12.667v-9.722h-8.777v9.722c0.001 0.582 0.473 1.055 1.055 1.055h6.667c0.583-0 1.055-0.473 1.055-1.055v-0zM11.611 11.055h2.11v-6.11h-2.11v6.11z"></path>
</symbol>
<symbol id="icon-svg5" viewBox="0 0 16 16">
<path d="M4.389 8.389h1.889v0.556h-1.889v-0.556z"></path>
<path d="M13.333 11.611h-3.444l1.433 1.911-0.445 0.334-1.683-2.245h-2.389l-1.683 2.245-0.445-0.334 1.433-1.911h-3.444c-0.521-0.001-0.944-0.423-0.945-0.945v-7.334c0.001-0.521 0.423-0.944 0.945-0.945h10.667c0.522 0.001 0.944 0.423 0.945 0.945v7.333c-0.001 0.521-0.423 0.944-0.945 0.945h-0zM2.278 2.945v8.11h11.445l-0.001-8.11h-11.444z"></path>
</symbol>
<symbol id="icon-svg6" viewBox="0 0 16 16">
<path d="M9.56 8.030c0 0 0 0 0 0 0.42 0 0.76-0.34 0.76-0.76v-0.713h-1.521v0.713c0 0.42 0.34 0.76 0.76 0.76 0 0 0 0 0 0h-0z"></path>
<path d="M5.482 2.142l-0.048 0.015c-0.919 0.297-2.722 0.888-3.599 1.176l-0.047 0.015c-0.267 0.089-0.455 0.337-0.455 0.629 0 0.001 0 0.002 0 0.003v-0 2.477c0 0 0 0 0 0 0 0.368 0.298 0.667 0.667 0.667 0.057 0 0.113-0.007 0.166-0.021l-0.005 0.001 1.839-0.459v6.709c0 0.368 0.298 0.667 0.667 0.667h6.667c0 0 0 0 0 0 0.368 0 0.667-0.298 0.667-0.667 0 0 0 0 0 0v0-6.709l1.839 0.459c0.421 0.105 0.828-0.213 0.828-0.647v-2.477c0-0.288-0.181-0.542-0.456-0.632-0.857-0.281-2.71-0.888-3.645-1.191l-0.048-0.015c-0.305-0.099-0.502-0.161-0.517-0.164h-0.001c0 0.197-0.028 0.386-0.081 0.566l-0.002 0.006c-0.254 0.833-1.016 1.429-1.917 1.429s-1.663-0.596-1.913-1.414l-0.004-0.014-0.002-0.006c-0.051-0.169-0.081-0.362-0.081-0.563 0-0.001 0-0.002 0-0.003v0h-0.001c-0.015 0.003-0.212 0.065-0.517 0.164zM11.488 3.059c0.906 0.295 1.958 0.64 2.545 0.833 0.037 0.012 0.062 0.046 0.062 0.086 0 0.001-0 0.002-0 0.003v-0 2.477c0 0.063-0.058 0.107-0.118 0.093l-2.549-0.637v7.441c0 0.053-0.043 0.095-0.095 0.095h-6.667c-0.053 0-0.095-0.043-0.095-0.095v0-7.441l-2.549 0.637c-0.007 0.002-0.015 0.003-0.023 0.003-0.053 0-0.095-0.043-0.095-0.095 0-0 0-0 0-0v0-2.477c0-0.044 0.026-0.077 0.062-0.089l0.047-0.015c0.595-0.195 1.616-0.53 2.498-0.817 0.385-0.126 0.742-0.242 1.027-0.334 0.32 1.056 1.301 1.825 2.462 1.825s2.142-0.769 2.461-1.825c0.284 0.092 0.642 0.208 1.026 0.334z"></path>
</symbol>
<symbol id="icon-svg7" viewBox="0 0 16 16">
<path d="M5.611 10.333c0 0.338-0.274 0.611-0.611 0.611s-0.611-0.274-0.611-0.611v0c0-0.338 0.274-0.611 0.611-0.611s0.611 0.274 0.611 0.611v0zM11.611 10.333c0 0.338-0.274 0.611-0.611 0.611s-0.611-0.274-0.611-0.611v0c0-0.338 0.274-0.611 0.611-0.611s0.611 0.274 0.611 0.611v0z"></path>
<path d="M13.614 4v1.67l0.352 0.034c0.068 0.006 0.131 0.022 0.181 0.049 0.043 0.024 0.084 0.060 0.115 0.134 0.016 0.039 0.023 0.082 0.020 0.127l-0.001 0.014v1.306c0 0.154-0.124 0.278-0.278 0.278h-0.389v4.389c0 0.345-0.189 0.647-0.476 0.813l-0.193 0.112v1.074c0 0.154-0.124 0.278-0.278 0.278h-0.667c-0 0-0 0-0.001 0-0.153 0-0.277-0.124-0.277-0.277 0-0 0-0 0-0.001v0-1.055h-7.444v1.055c0 0.154-0.124 0.278-0.278 0.278h-0.667c-0 0-0 0-0 0-0.153 0-0.277-0.124-0.277-0.277 0-0 0-0 0-0.001v0-1.076l-0.192-0.113c-0.285-0.167-0.472-0.469-0.472-0.811v-4.389h-0.391c-0 0-0 0-0 0-0.153 0-0.278-0.124-0.278-0.278 0-0 0-0 0-0v0-1.333c0-0.146 0.111-0.266 0.256-0.278h0l0.010-0 0.033-0.002 0.37-0.017v-1.703c0-1.256 1.022-2.278 2.278-2.278h6.667c1.256 0 2.278 1.022 2.278 2.278zM2.947 12.389h10.108v-0.869l0.004-3.242h-10.112v4.11zM2.947 7.722h4.777v-3.444h-4.777v3.444zM8.281 7.722h4.777v-3.444h-4.777v3.444zM2.845 3.722h10.315l-0.341-0.584c-0.296-0.508-0.846-0.859-1.484-0.859h-6.667c-0.638 0-1.187 0.351-1.483 0.859l-0.341 0.584z"></path>
</symbol>
<symbol id="icon-svg8" viewBox="0 0 16 16">
<path d="M12.662 8.278h-10.274v-0.556h10.274l-3.917-3.917 0.393-0.393 4.589 4.588-4.589 4.589-0.393-0.393 3.917-3.917z"></path>
</symbol>
<symbol id="icon-svg9" viewBox="0 0 16 16">
<path d="M1.829 2.057v0.55h0v1.048c0 0.631 0.512 1.143 1.143 1.143l2.987-0-0.006 3.747c-0.001 0.238 0.111 0.462 0.302 0.605l1.578 1.184v2.838h-0.006v0.557h6.558v-0.557h-6.002v-2.83l1.571-1.193c0.187-0.142 0.298-0.363 0.298-0.599l0.006-3.754h2.983c0.631 0 1.143-0.512 1.143-1.143l-0-1.048h0.002v-0.55h-12.556zM2.386 4.241v-1.634h11.44v1.634h-11.44zM6.507 8.656l0.008-3.859h3.187l-0.005 2.442h-2.050v0.557h2.048l-0.002 0.857-1.576 1.218-1.611-1.214z"></path>
<path d="M3.495 13.172h2.642v0.575h-2.642v-0.575z"></path>
<path d="M4.298 10.055l-0.342 0.462 2.124 1.571 0.342-0.462-2.124-1.571z"></path>
<path d="M12.363 10.517l-0.342-0.462-2.124 1.571 0.342 0.462 2.124-1.571z"></path>
</symbol>
<symbol fill="none" xmlns="http://www.w3.org/2000/svg" viewBox="0 0 164 20" id="icon-logo">
<path d="M112.683 19.997a2.324 2.324 0 002.324-2.325V9.298l4.186 5.58a2.324 2.324 0 103.719-2.789L114.542.93a2.323 2.323 0 00-4.184 1.395v15.347a2.325 2.325 0 002.325 2.325zM4.649 17.672V2.325a2.324 2.324 0 10-4.649 0v15.347a2.324 2.324 0 104.649 0zm29.985 1.923a2.324 2.324 0 00.617-3.229l-3.493-5.144a2.324 2.324 0 10-3.846 2.612l3.493 5.143a2.322 2.322 0 003.229.618zm-12.544.401a2.324 2.324 0 01-2.323-2.324V2.325a2.324 2.324 0 114.648 0v15.347a2.324 2.324 0 01-2.324 2.324zm29.756-2.345a2.324 2.324 0 00-2.324-2.324 5.345 5.345 0 01-5.34-5.34 5.345 5.345 0 015.34-5.338 2.324 2.324 0 100-4.649c-5.507 0-9.988 4.48-9.988 9.988 0 5.507 4.48 9.988 9.988 9.988a2.324 2.324 0 002.324-2.325zm109.601 2.345a2.32 2.32 0 01-1.714-.753L145.666 3.896a2.325 2.325 0 013.428-3.142l14.066 15.347a2.323 2.323 0 01-1.713 3.895zm-61.91-2.345a2.324 2.324 0 00-2.324-2.324 5.345 5.345 0 01-5.339-5.34 5.345 5.345 0 015.34-5.338 2.324 2.324 0 100-4.649c-5.508 0-9.988 4.48-9.988 9.988 0 5.507 4.48 9.988 9.987 9.988a2.324 2.324 0 002.325-2.325zm41.424.021V2.325a2.324 2.324 0 00-4.649 0v15.347a2.325 2.325 0 004.649 0zm-75.963 2.325a2.324 2.324 0 002.325-2.325V9.298l4.185 5.58a2.324 2.324 0 103.72-2.789L66.857.93a2.324 2.324 0 00-4.184 1.395v15.347a2.324 2.324 0 002.324 2.325z" fill="#F2353F"></path>
<path d="M129.414 20a2.325 2.325 0 01-2.323-2.327l.008-8.374-4.191 5.577a2.324 2.324 0 11-3.716-2.793l8.38-11.151a2.324 2.324 0 014.182 1.398l-.014 15.348A2.324 2.324 0 01129.414 20zm-99.159-5.186a7.464 7.464 0 006.115-7.346C36.37 3.35 33.02 0 28.9 0h-6.81a2.324 2.324 0 100 4.65h6.81a2.823 2.823 0 012.82 2.818c0 1.362-.97 2.528-2.305 2.774a2.324 2.324 0 10.839 4.572zm118.839 4.428L163.16 3.895a2.325 2.325 0 00-3.427-3.141L145.666 16.1a2.325 2.325 0 003.428 3.141zm-41.892-9.254c0-5.507-4.481-9.988-9.988-9.988a2.324 2.324 0 100 4.65 5.345 5.345 0 015.339 5.338 5.345 5.345 0 01-5.339 5.339 2.324 2.324 0 100 4.649c5.507 0 9.988-4.481 9.988-9.988zm-47.692 0C59.51 4.48 55.028 0 49.521 0a2.324 2.324 0 100 4.65 5.345 5.345 0 015.339 5.338 5.345 5.345 0 01-5.34 5.339 2.324 2.324 0 100 4.649c5.508 0 9.988-4.481 9.988-9.988zm-42.907-2.52C16.603 3.35 13.253 0 9.135 0h-6.81a2.324 2.324 0 100 4.65h6.81a2.823 2.823 0 012.82 2.818 2.823 2.823 0 01-2.82 2.82h-6.81a2.324 2.324 0 100 4.649h6.81c4.118 0 7.468-3.35 7.468-7.469zM81.728 20a2.324 2.324 0 01-2.322-2.327l.008-8.374-4.191 5.577a2.324 2.324 0 11-3.717-2.793L79.886.932A2.324 2.324 0 0184.07 2.33l-.014 15.348A2.324 2.324 0 0181.728 20z" fill="#5D626A"></path>
<path d="M122.911 12.089h.001l-1.859-2.48-1.86 2.48h.002a2.324 2.324 0 103.716 0zm-91.152-.866c-.874-1.334-2.906-1.338-3.797-.067a2.328 2.328 0 00-.098 2.599c1.24 1.994 3.98.795 5.441-.255l-1.546-2.277zM2.324 4.65H4.65V2.324a2.324 2.324 0 10-2.325 2.324zm0 10.287H4.65v-4.649H2.324a2.324 2.324 0 100 4.649zm152.089-1.499l3.153-3.44-3.153-3.44-3.153 3.44 3.153 3.44zM49.522 4.65a2.324 2.324 0 100-4.65 2.324 2.324 0 000 4.65zm0 15.326a2.324 2.324 0 100-4.649 2.324 2.324 0 000 4.649zM97.214 4.65a2.324 2.324 0 100-4.65 2.324 2.324 0 000 4.65zm0 15.326a2.324 2.324 0 100-4.649 2.324 2.324 0 000 4.649zM22.09 4.65h2.325V2.324a2.324 2.324 0 10-2.324 2.324zm53.136 7.439l-1.859-2.48-1.86 2.48h.002a2.324 2.324 0 103.716 0z" fill="#1F2C37"></path>
</symbol>
<symbol xmlns="http://www.w3.org/2000/svg" viewBox="0 0 20 20" id="icon-search">
<path d="M8.667 16.333a6.627 6.627 0 004.08-1.406l3.664 3.663 1.178-1.178-3.663-3.664a6.626 6.626 0 001.407-4.081A6.674 6.674 0 008.667 3 6.674 6.674 0 002 9.667a6.674 6.674 0 006.667 6.666zm0-11.666c2.757 0 5 2.242 5 5 0 2.757-2.243 5-5 5-2.758 0-5-2.243-5-5 0-2.758 2.242-5 5-5z"></path>
</symbol>
<symbol xmlns="http://www.w3.org/2000/svg" viewBox="0 0 23 23" id="icon-plus23">
<path d="M11.5 0v23M0 11.5h23"></path>
</symbol>
</defs>
</svg>
