<svg width="70" height="70" fill="none" xmlns="http://www.w3.org/2000/svg"><path d="M41.825 35.13a3.327 3.327 0 003.328-3.327v-3.118h-6.655v3.118a3.327 3.327 0 003.328 3.327z" fill="#F2353F"/><path fill-rule="evenodd" clip-rule="evenodd" d="M23.985 9.373l-.209.067c-4.02 1.301-11.91 3.886-15.746 5.143l-.205.067a2.895 2.895 0 00-1.992 2.765v10.838a2.916 2.916 0 003.623 2.83l8.044-2.01v29.354a2.916 2.916 0 002.916 2.916h29.167a2.916 2.916 0 002.917-2.916V29.073l8.044 2.01c1.84.46 3.622-.93 3.622-2.83V17.416c0-1.26-.793-2.371-1.995-2.765-3.75-1.23-11.855-3.885-15.948-5.21l-.209-.067c-1.335-.432-2.195-.706-2.26-.717h-.004c0 .86-.124 1.69-.355 2.475l-.008.025a8.753 8.753 0 01-16.775 0l-.008-.025a8.754 8.754 0 01-.354-2.475h-.004c-.065.011-.926.285-2.26.717zm26.275 4.01c3.962 1.292 8.566 2.801 11.133 3.643a.395.395 0 01.273.39v10.837c0 .274-.254.47-.515.405L50 25.872v32.555c0 .23-.186.416-.417.416H20.416a.416.416 0 01-.416-.416V25.872L8.848 28.658a.416.416 0 01-.515-.405V17.416c0-.194.114-.337.272-.39l.206-.067c2.604-.853 7.07-2.317 10.928-3.575 1.683-.55 3.248-1.06 4.491-1.462 1.4 4.621 5.691 7.985 10.77 7.985 5.078 0 9.37-3.364 10.769-7.985 1.243.403 2.808.912 4.49 1.462z" fill="#F2353F"/></svg>