<svg width="70" height="70" fill="none" xmlns="http://www.w3.org/2000/svg"><path d="M24.55 45.208a2.675 2.675 0 11-5.35 0 2.675 2.675 0 015.35 0zM50.8 45.208a2.675 2.675 0 11-5.35 0 2.675 2.675 0 015.35 0z" fill="#F2353F"/><path fill-rule="evenodd" clip-rule="evenodd" d="M59.562 17.5v7.306l1.538.147c.297.028.574.095.793.216.187.103.369.261.504.585.07.171.1.36.086.555l-.005.06v5.714c0 .672-.544 1.217-1.217 1.217h-1.7v19.2c0 1.508-.827 2.829-2.082 3.558l-.846.492v4.7c0 .674-.542 1.217-1.217 1.217H52.5a1.214 1.214 0 01-1.217-1.217v-4.617H18.717v4.617c0 .674-.543 1.217-1.217 1.217h-2.917a1.214 1.214 0 01-1.216-1.217v-4.707l-.84-.493c-1.245-.73-2.066-2.05-2.066-3.55V33.3H8.75a1.216 1.216 0 01-1.217-1.217V26.25c0-.638.487-1.164 1.12-1.215h.002l.042-.002.144-.008 1.62-.075V17.5c0-5.495 4.472-9.967 9.967-9.967h29.167c5.495 0 9.967 4.472 9.967 9.967zM12.895 54.2h44.222v-3.8l.016-14.183H12.895V54.2zm0-20.417h20.9V18.716h-20.9v15.067zm23.333 0h20.9V18.716h-20.9v15.067zm-23.782-17.5h45.13l-1.49-2.556c-1.296-2.223-3.7-3.76-6.491-3.76H20.428c-2.79 0-5.195 1.537-6.49 3.76l-1.492 2.556z" fill="#F2353F"/></svg>