<svg width="70" height="70" fill="none" xmlns="http://www.w3.org/2000/svg"><path fill-rule="evenodd" clip-rule="evenodd" d="M35.43 7.458L62.18 25.207l.014.008a.839.839 0 01.388.705V43.944a.817.817 0 01-.146.47l-.002.003a.8.8 0 01-.241.232l-.012.007-26.755 17.755-.013.009a.788.788 0 01-.458.138.796.796 0 01-.457-.141l-.01-.007L7.75 44.664c-.28-.185-.416-.412-.416-.748V25.92a.792.792 0 01.136-.457.782.782 0 01.23-.227l.023-.014L34.49 7.457l.01-.007c.228-.157.687-.159.92.002l.01.006zm12.838 26.423l12.003-7.964-24.496-16.25V25.48l12.493 8.402zm-14.133-8.402V9.666L9.645 25.92l11.997 7.96 12.493-8.4zm-13.967 9.398L8.983 27.452v14.95l11.185-7.525zm-10.533 9.07l24.5 16.253V44.15l-12.487-8.286-12.013 8.084zm13.496-9.082l11.822 7.853 11.833-7.853-11.833-7.956-11.822 7.956zm12.647 9.281v16.055l24.496-16.256-12.005-8.084-12.491 8.285zm13.97-9.269L60.935 42.4V27.454l-11.189 7.424z" fill="#F2353F"/></svg>