<svg width="70" height="70" fill="none" xmlns="http://www.w3.org/2000/svg"><path d="M19.2 36.7h14.1v2.433H19.2V36.7zM19.2 48.367h14.1V50.8H19.2v-2.433z" fill="#F2353F"/><path fill-rule="evenodd" clip-rule="evenodd" d="M58.333 44.967H44.967v13.366a4.14 4.14 0 01-4.134 4.134H11.667a4.14 4.14 0 01-4.134-4.134V29.167a4.14 4.14 0 014.133-4.134h13.367V11.666a4.14 4.14 0 014.133-4.133h29.167a4.14 4.14 0 014.134 4.133v29.167a4.14 4.14 0 01-4.134 4.134zm-48.366-17.5v32.566h32.572l-.006-32.567H9.967zm35 15.066h15.066V9.967H27.467v15.066h13.366a4.14 4.14 0 014.134 4.133v13.367z" fill="#F2353F"/></svg>